<svg viewBox="0 -24 512 512" xmlns="http://www.w3.org/2000/svg"><path d="m512 145.273438c0 70.015624-49.855469 128.707031-87.355469 166.765624-3.914062 3.972657-9.082031 5.960938-14.25 5.960938-5.070312 0-10.136719-1.914062-14.035156-5.753906-7.867187-7.753906-7.960937-20.417969-.207031-28.28125 51.746094-52.515625 75.847656-96.585938 75.847656-138.691406 0-61.984376-40.300781-105.273438-98-105.273438-37.519531 0-65.222656 14.113281-82.34375 41.953125-13.585938 22.097656-15.703125 45.097656-15.722656 45.328125-.800782 10.417969-9.488282 18.417969-19.9375 18.417969-10.449219 0-19.136719-8.089844-19.9375-18.507813-.011719-.140625-2.128906-23.140625-15.71875-45.238281-17.117188-27.839844-44.820313-41.953125-82.339844-41.953125-57.699219 0-98 43.289062-98 105.273438 0 27.953124 10.605469 56.695312 32.382812 87.726562h47.472657l33.179687-67.792969c3.414063-6.972656 10.582032-11.367187 18.320313-11.203125 7.765625.136719 14.746093 4.757813 17.910156 11.847656l40.863281 91.59375 26.023438-51.46875c3.378906-6.679687 10.203125-10.914062 17.6875-10.976562h.164062c7.421875 0 14.234375 4.109375 17.695313 10.6875l14.375 27.3125h44.925781c11.046875 0 20 8.953125 20 20s-8.953125 20-20 20h-57c-7.425781 0-14.238281-4.113281-17.699219-10.683594l-1.945312-3.699218-27.507813 54.40625c-3.40625 6.742187-10.316406 10.976562-17.84375 10.976562-.164062 0-.324218-.003906-.488281-.007812-7.714844-.183594-14.632813-4.796876-17.78125-11.84375l-40.574219-90.941407-19.863281 40.585938c-3.355469 6.859375-10.328125 11.207031-17.964844 11.207031h-112.332031c-11.046875 0-20-8.953125-20-20s8.953125-20 20-20h5.070312c-16.828124-29.765625-25.070312-58.6875-25.070312-87.726562 0-42.476563 13.945312-79.050782 40.332031-105.769532 25.152344-25.476562 59.839844-39.503906 97.667969-39.503906 66.136719 0 100.332031 34.03125 117.371094 62.578125.210937.351563.421875.707031.628906 1.0625.207031-.355469.417969-.710937.628906-1.0625 17.039063-28.546875 51.234375-62.578125 117.371094-62.578125 37.828125 0 72.515625 14.027344 97.667969 39.503906 26.386719 26.71875 40.332031 63.292969 40.332031 105.769532zm-186.191406 203.457031-.457032.402343c-25.421874 22.300782-49.722656 43.640626-69.351562 64.542969-19.628906-20.90625-43.933594-42.242187-69.355469-64.546875-13.539062-11.875-27.539062-24.15625-41.109375-36.632812-8.132812-7.476563-20.785156-6.945313-28.257812 1.1875-7.476563 8.128906-6.945313 20.78125 1.1875 28.257812 13.914062 12.792969 28.089844 25.230469 41.800781 37.257813 31.328125 27.484375 60.921875 53.445312 80.15625 77.339843.019531.027344.042969.050782.0625.078126.089844.109374.183594.214843.277344.320312.359375.425781.730469.835938 1.121093 1.226562.023438.023438.042969.046876.0625.066407.472657.46875.964844.902343 1.472657 1.3125.015625.011719.027343.023437.042969.035156.007812.011719.019531.015625.027343.023437.441407.355469.894531.6875 1.363281 1 .027344.019532.058594.039063.085938.058594.441406.292969.894531.570313 1.355469.824219.03125.019531.0625.039063.097656.054687.445313.246094.898437.46875 1.363281.679688.113282.050781.230469.097656.34375.148438.375.160156.753906.3125 1.136719.449218.101563.035156.203125.078125.300781.113282.429688.144531.863282.269531 1.300782.386718.171874.046875.339843.085938.511718.128906.355469.085938.714844.160157 1.078125.226563.140625.023437.28125.050781.421875.074219.421875.066406.847656.117187 1.269532.160156.152343.011719.300781.023438.453124.035156.457032.035156.914063.054688 1.371094.054688.015625 0 .035156.003906.050782.003906h.011718.011719c.015625 0 .03125-.003906.046875-.003906.460938 0 .914062-.023438 1.371094-.054688.152344-.011718.304687-.023437.453125-.035156.425781-.042969.84375-.089844 1.265625-.160156.144531-.019532.289062-.050782.4375-.074219.355468-.066406.710937-.140625 1.066406-.226563.171875-.039062.34375-.082031.515625-.128906.433594-.117187.867187-.242187 1.292969-.386718.105468-.035157.210937-.078126.316406-.117188.375-.132812.75-.28125 1.117188-.441406.121093-.050782.242187-.101563.359374-.15625.457032-.207032.910157-.429688 1.351563-.671875.039063-.019531.078125-.042969.117187-.066407.453126-.25.894532-.523437 1.332032-.8125.035156-.019531.070312-.042968.101562-.066406.464844-.308594.914063-.640625 1.355469-.996094.007813-.007812.019531-.011718.03125-.023437.015625-.011719.027344-.023437.042969-.039063.503906-.410156.996094-.84375 1.46875-1.308593.023437-.019531.042968-.046875.066406-.070313.386719-.386718.761719-.796875 1.121094-1.222656.089844-.105469.183594-.210938.273437-.320312.019531-.027344.042969-.050782.066407-.078126 19.230468-23.894531 48.820312-49.855468 80.148437-77.335937l.460937-.40625c8.300782-7.28125 9.128907-19.917969 1.84375-28.222656-7.289062-8.300781-19.925781-9.128907-28.230468-1.84375zm0 0"/></svg>