<?xml version="1.0" encoding="iso-8859-1"?>
<!-- Generator: Adobe Illustrator 19.0.0, SVG Export Plug-In . SVG Version: 6.00 Build 0)  -->
<svg version="1.1" id="Capa_1" xmlns="http://www.w3.org/2000/svg" xmlns:xlink="http://www.w3.org/1999/xlink" x="0px" y="0px"
	 viewBox="0 0 508.4 508.4" style="enable-background:new 0 0 508.4 508.4;" xml:space="preserve">
<g>
	<g>
		<path d="M381.9,235.132c-43.6-0.1-84.2,22.3-107.4,59.3c-4.7,7.5-8.6,15.5-11.7,23.8h-55.7v-14.4c12.6-5.4,24-13.2,33.6-23
			c14.4-14.3,24.6-32.3,29.4-52c14-1.1,25-13.6,25-28.7c0-7.5-2.8-14.7-7.9-20.2c-3.7-4.2-8.7-7-14.2-8v-11.9
			c6.7,2.7,13.8,4.1,20.9,4.1c19.4,0,37.3-10.1,47.4-26.6c14.2-23.6,8.9-54-12.5-71.4c-1.9-1.6-3.9-3-6.1-4.3
			c-21.8-13.1-49.8-9.6-67.7,8.5c-8.6-13.2-19.9-24.3-33.2-32.8c-44.1-28.1-101.7-21.8-138.7,15.1c-5.1,5.1-9.7,10.7-13.7,16.7
			c-1.1,1-1.9,2.2-2.3,3.7c-7,11.4-11.9,24.1-14.3,37.3H53c-2,6.8-2,13.9-2,21.1v40.5c-5.5,1-10.5,3.8-14.3,8
			c-5.1,5.5-7.9,12.7-7.9,20.2c0,15.1,11.1,27.5,25.1,28.7c8.4,35,33.5,63.7,67.1,76.7v12.7H78.2c-43.4,0-78.2,35.4-78.2,78.8v79.4
			c0,4.4,3.1,7.8,7.5,7.8H350c10.3,2.9,21,4.3,31.7,4.1c69.8,0,126.7-56.8,126.7-126.6S451.7,235.132,381.9,235.132z M44.8,200.132
			c0-3.5,1.4-6.8,3.8-9.3c0.7-0.8,1.6-1.4,2.5-1.9v13.1c0,3.2-0.1,6.4,0.2,9.5C47.3,209.132,44.8,204.732,44.8,200.132z
			 M238,334.232h20.2c-3.2,14.3-3.8,29-2,43.6c-0.9-1.2-2-2.3-3.1-3.4c-4.1-4.2-9.3-7.2-15.1-8.5V334.232z M242,385.732
			c1.9,1.9,3.3,4.2,4.1,6.8c0.5,1.6,0.7,3.2,0.7,4.8c0,9.1-7.4,16.5-16.4,16.5c-4.3,0-8.5-1.7-11.6-4.8c-6.4-6.4-6.5-16.8,0-23.3
			c3.1-3.1,7.3-4.8,11.7-4.8C234.8,380.932,239,382.632,242,385.732z M273.1,201.932v-13c0.9,0.5,1.7,1.1,2.4,1.9
			c2.3,2.6,3.6,5.9,3.6,9.3c0.1,4.6-2.3,9-6.3,11.4C273.1,208.332,273.1,205.232,273.1,201.932z M333.3,112.632
			c-0.6,5.9-2.4,11.5-5.4,16.5c-9.1,15-27,22.1-43.9,17.5L333.3,112.632z M324.7,84.232c2.6,3.2,4.6,6.9,6,10.7l-57.6,39.5v-3.1
			c0-3.7,0-7.4-0.4-11.1L324.7,84.232z M311.6,73.832l-41.8,29.2c-1.6-6.1-3.7-12.1-6.4-17.9
			C274.7,70.432,294.8,65.732,311.6,73.832z M94.6,63.932c17.9-17.9,42.2-28,67.5-27.9c2.6,0,5.2,0.1,7.8,0.3
			c-28,26.9-58.2,32.6-79.6,32.2C91.6,66.932,93.1,65.432,94.6,63.932z M79.3,83.932c4.3,0.4,8.6,0.6,12.9,0.6
			c26.4,0,63.5-8.1,96.5-44.7c6.2,1.8,12.2,4.2,17.8,7.2c-22.1,34.1-52.2,54.2-89.7,59.8c-15.5,2.2-31.3,1.9-46.7-1
			C72.2,98.132,75.3,90.832,79.3,83.932z M67.4,121.532c9.6,1.8,19.3,2.7,29.1,2.7c7.4,0,14.8-0.5,22.1-1.6
			c29.6-4.2,70.6-19.4,101.5-67.1c10.9,8.4,19.9,19,26.4,31.2c0.3,0.9,0.7,1.8,1.3,2.6c4.2,8.6,7.1,17.9,8.5,27.4
			c0.7,4.8,1,9.7,1,14.6v4.9c-21-16.5-27.9-40.1-27.9-40.3c-0.8-3.2-3.4-5.5-6.6-6c-3.2-0.4-6.3,1.1-7.8,3.9
			c-39.2,67.4-124.9,55.4-147.9,50.7v-13.1C67,128.132,67.1,124.832,67.4,121.532z M68.4,218.632c-0.9-5.5-1.3-11.1-1.3-16.7v-41.2
			c13.1,2.4,26.3,3.6,39.6,3.6c35.7,0,82.3-9,113-49.3c6,12.1,17.4,28.8,37.4,40.4v46.5c0.1,5.6-0.4,11.2-1.3,16.8
			c-3.4,19.2-12.6,36.9-26.4,50.7c-9.6,9.6-21.2,17.1-34,21.9c-10.7,4-22,6-33.4,6c-10.2,0-20.4-1.6-30-4.9
			C98.8,281.432,74.3,253.132,68.4,218.632z M154.1,468.232h-138v-71.2c0-34.5,27.6-62.8,62.2-62.8h6.8v32.4
			c-7.4,1.7-14.1,5.4-19.5,10.7c-7.4,7.5-11.5,17.6-11.5,28.1v44.3c0,4.4,3.2,8.5,7.6,8.5h12.7c4.4,0,8-3.6,8-8c0-4.4-3.6-8-8-8
			h-4.3v-36.8c-0.2-12.6,9.9-23,22.6-23.2c0.1,0,0.3,0,0.4,0h0.3c13,0,23.7,10.1,23.7,23.2v36.8h-7.9c-4.4,0-8,3.6-8,8
			c0,4.4,3.6,8,8,8h15.9c4.4,0,8-4.1,8-8.5v-44.3c-0.1-18.9-13.5-35.1-32-38.9v-32.3h24.4l28.6,30.7V468.232z M137.1,323.132v-12.7
			c17.8,4.1,36.4,3.8,54-1v13.5l-28.3,27.4L137.1,323.132z M170.1,468.232v-103.1l32.4-30.9h19.6v31.7
			c-17.4,4.5-27.7,22.3-23.2,39.7c4.5,17.4,22.3,27.7,39.7,23.2c12.1-3.2,21.4-13.1,23.7-25.4c5.9,17.1,15.5,32.7,28,45.8
			c6.8,7.4,14.6,13.8,23.2,19H170.1z M381.9,472.432c-9.8,0-19.5-1.3-28.9-3.9c-39.9-10.7-70.4-42.8-79.2-83.2
			c-4.1-18.5-3.3-37.8,2.2-55.9v-0.1c2.8-9.3,6.9-18.2,12-26.4c32.4-51.8,100.7-67.5,152.5-35c51.8,32.4,67.5,100.7,35,152.5
			C455.5,452.832,420,472.432,381.9,472.432z"/>
	</g>
</g>
<g>
	<g>
		<path d="M486.1,335.832c-2.7-4.4-7-7.6-12-8.9c-1.3-5.1-3.9-9.7-7.7-13.4c-11.4-11.4-29.9-11.3-41.3,0.1c-0.7,0.4-1.3,1-1.8,1.7
			c-6.8-8-16.6-13-27.1-13.9c-0.1,0-0.2,0-0.2,0h-0.1c-1-0.1-2-0.1-3.2-0.1h-25c-1.2,0-2.3,0.1-3.3,0.2c-0.1,0-0.1,0-0.2,0
			c-10.5,0.9-20.3,5.8-27.1,13.9c-0.5-0.7-1.1-1.3-1.7-1.9c-11.4-11.4-29.9-11.4-41.3,0c-4.1,4.1-6.8,9.2-8,14.8
			c-10,5.1-14,17.3-8.9,27.3c5.1,10,17.3,14,27.3,8.9c10-5.1,14-17.3,8.9-27.3c-2.2-4.3-5.8-7.7-10.2-9.5c2.3-4.2,6.8-6.8,11.6-6.8
			c7.1,0,12.9,5.6,13.2,12.6c-2.1,8.7-1.3,17.9,2.1,26.2c0.2,0.5,0.5,0.9,0.8,1.3l23.4,35.5v2.6c0,7.8,3.7,15.2,10.1,19.7
			c0,0.5,0,1.2,0,2.1c0,2.5-0.2,4.7-0.2,4.8c-0.4,4.4,2.9,8.3,7.3,8.6c4,0.3,7.7-2.4,8.5-6.4c0.6,3.9,4,6.8,7.9,6.8
			c0.2,0,0.4,0,0.6,0c4.4-0.3,7.7-4.2,7.4-8.6c0,0-0.2-2.4-0.2-5c0-0.8-0.1-1.4-0.1-1.9c6.7-4.5,10.6-12,10.6-20.1v-2.6l23.5-35.5
			c0.3-0.4,0.5-0.9,0.8-1.3c3.4-8.3,4.2-17.5,2.1-26.2c0.3-7,6.1-12.6,13.2-12.6c3.5,0,6.9,1.4,9.4,3.9c1.3,1.2,2.2,2.7,2.9,4.4
			c-9.6,5.9-12.5,18.5-6.6,28c5.9,9.6,18.5,12.5,28,6.6C489.1,357.932,492,345.332,486.1,335.832z M295.2,350.732
			c-2.4,0-4.4-2-4.4-4.4c0-2.4,2-4.4,4.4-4.4c2.4,0,4.4,2,4.4,4.4C299.5,348.832,297.6,350.732,295.2,350.732z M415.9,352.932
			l-24.3,36.8c-0.9,1.3-1.4,2.8-1.4,4.4v5c0,3.2-1.9,6.1-4.8,7.5c-3.6,1.7-5,5.2-5.5,8.6c-0.5-3.4-1.8-6.9-5.3-8.8
			c-2.7-1.4-4.4-4.2-4.4-7.3v-5c0-1.6-0.5-3.1-1.4-4.4l-24.3-36.8c-3-7.8-2.2-16.5,2.1-23.6c4-6.8,11-11.2,18.8-11.9
			c0.8,0,1.6-0.1,2.3-0.1h27.4c7.7,0.9,14.6,5.3,18.7,11.9C418.1,336.332,418.9,345.032,415.9,352.932z M468.6,350.832
			c-2.4,0-4.4-2-4.4-4.4c0.1-2.4,2-4.4,4.4-4.4c2.4,0,4.4,2,4.4,4.4C473,348.832,471,350.832,468.6,350.832z"/>
	</g>
</g>
<g>
	<g>
		<path d="M135.1,188.632c-4.4,0-8,3.6-8,8v4.4c0,5.2-4.3,9.5-9.5,9.5c-5.2,0-9.5-4.3-9.5-9.5v-4.4c0-4.4-3.6-8-8-8
			c-4.4,0-8,3.6-8,8v4.4c0,6.8,2.7,13.3,7.6,18.1c4.7,4.8,11.2,7.5,17.9,7.5c14.1,0,25.5-11.5,25.5-25.6v-4.4
			C143.1,192.232,139.5,188.632,135.1,188.632z"/>
	</g>
</g>
<g>
	<g>
		<path d="M224.1,188.632c-4.4,0-8,3.6-8,8v4.4c-0.1,5.4-4.5,9.7-9.8,9.6c-2.6,0-5.2-1-7.1-2.8c-1.9-1.8-3-4.2-3.1-6.8v-4.4
			c0-4.4-3.6-8-8-8c-4.4,0-8,3.6-8,8v4.4c0.1,6.8,2.9,13.4,7.8,18.1c4.9,4.8,11.5,7.5,18.4,7.5c14.2,0,25.7-11.4,25.8-25.6v-4.4
			C232.1,192.232,228.5,188.632,224.1,188.632z"/>
	</g>
</g>
<g>
</g>
<g>
</g>
<g>
</g>
<g>
</g>
<g>
</g>
<g>
</g>
<g>
</g>
<g>
</g>
<g>
</g>
<g>
</g>
<g>
</g>
<g>
</g>
<g>
</g>
<g>
</g>
<g>
</g>
</svg>
